<svg xmlns="http://www.w3.org/2000/svg" width="185.613" height="50.167" viewBox="0 0 185.613 50.167">
  <g id="Group" transform="translate(-375 -42)">
    <path id="Vector" d="M16,19.96h8.05c-1.076,2.882-3.7,4.65-7.7,4.65-5.853,0-9.465-3.747-9.465-8.863a8.655,8.655,0,0,1,8.863-9.036A8.614,8.614,0,0,1,23.1,10.24l5.853-3.356A15.409,15.409,0,0,0,15.792,0,15.624,15.624,0,0,0,0,15.709c0,8.652,6.8,15.626,16.266,15.626,8.434,0,14.851-5.6,14.851-14.806V13.949H16.01V19.96Z" transform="translate(444.457 51.773)" fill="#fff"/>
    <path id="Vector-2" data-name="Vector" d="M11.406,0A11.28,11.28,0,0,0,0,11.361,11.28,11.28,0,0,0,11.406,22.721,11.28,11.28,0,0,0,22.811,11.361,11.275,11.275,0,0,0,11.406,0Zm0,16.439a4.827,4.827,0,0,1-4.95-5.078,4.827,4.827,0,0,1,4.95-5.078,4.827,4.827,0,0,1,4.95,5.078A4.827,4.827,0,0,1,11.406,16.439Z" transform="translate(478.148 60.372)" fill="#fff"/>
    <path id="Vector-3" data-name="Vector" d="M0,0H6.455V31.418H0Z" transform="translate(504.616 51.073)" fill="#fff"/>
    <path id="Vector-4" data-name="Vector" d="M11.451,0A11.035,11.035,0,0,0,0,11.361c0,6.41,4.559,11.361,11.925,11.361,4.085,0,7.275-1.5,9.382-4.431l-5.169-2.972a5.612,5.612,0,0,1-4.13,1.633c-2.37,0-4.349-.775-5.169-3.009h15.28a12.458,12.458,0,0,0,.256-2.581C22.383,4.86,17.741,0,11.451,0ZM6.719,9.119a4.44,4.44,0,0,1,4.695-3.4,4.426,4.426,0,0,1,4.559,3.4Z" transform="translate(514.727 60.372)" fill="#fff"/>
    <path id="Vector-5" data-name="Vector" d="M11.323,16.364a4.734,4.734,0,0,1-4.86-5,4.738,4.738,0,0,1,4.86-5A4.454,4.454,0,0,1,15.5,8.78l5.635-3.273A11.079,11.079,0,0,0,11.406,0,11.147,11.147,0,0,0,0,11.361,11.147,11.147,0,0,0,11.406,22.721a10.988,10.988,0,0,0,9.728-5.552L15.5,13.941A4.422,4.422,0,0,1,11.323,16.364Z" transform="translate(539.48 60.365)" fill="#fff"/>
    <path id="Vector-6" data-name="Vector" d="M5.507,11.955V0H0V42.139H41.876V36.632H5.507Z" transform="translate(375 50.028)" fill="#13aae6"/>
    <path id="Vector-7" data-name="Vector" d="M.045,11.955H0v21.72H33.675V14.791h-2.2v-.03H17.688v5.515h10.48v7.892H5.507V5.515H28.168v6.628h5.507V0H.045Z" transform="translate(383.246 50.028)" fill="#13aae6"/>
    <path id="Vector-8" data-name="Vector" d="M0,5.507H36.369V41.7h5.507V0H0Z" transform="translate(383.291 42)" fill="#13aae6"/>
  </g>
</svg>
